<?xml version="1.0" encoding="UTF-8"?>
<svg xmlns="http://www.w3.org/2000/svg" xmlns:xlink="http://www.w3.org/1999/xlink" width="14pt" height="16pt" viewBox="0 0 14 16" version="1.1">
<g id="surface1">
<path style=" stroke:none;fill-rule:nonzero;fill:rgb(0%,0%,0%);fill-opacity:1;" d="M 3.132812 13.695312 L 0.234375 13.695312 L 0.234375 4.550781 L 3.132812 4.550781 Z M 1.679688 3.304688 C 0.753906 3.304688 0 2.554688 0 1.644531 C 0 0.738281 0.753906 0 1.679688 0 C 2.609375 0 3.363281 0.738281 3.363281 1.644531 C 3.363281 2.554688 2.609375 3.304688 1.679688 3.304688 Z M 13.996094 13.695312 L 11.101562 13.695312 L 11.101562 9.246094 C 11.101562 8.183594 11.078125 6.824219 9.589844 6.824219 C 8.082031 6.824219 7.851562 7.976562 7.851562 9.167969 L 7.851562 13.695312 L 4.953125 13.695312 L 4.953125 4.550781 L 7.734375 4.550781 L 7.734375 5.796875 L 7.777344 5.796875 C 8.160156 5.082031 9.109375 4.324219 10.523438 4.324219 C 13.460938 4.324219 14 6.214844 14 8.671875 L 14 13.695312 Z M 13.996094 13.695312 "/>
</g>
</svg>
