<?xml version="1.0" encoding="UTF-8"?>
<svg xmlns="http://www.w3.org/2000/svg" xmlns:xlink="http://www.w3.org/1999/xlink" width="12pt" height="15pt" viewBox="0 0 12 15" version="1.1">
<g id="surface1">
<path style=" stroke:none;fill-rule:nonzero;fill:rgb(0%,0%,0%);fill-opacity:1;" d="M 6.375 0.191406 C 3.167969 0.191406 0 2.214844 0 5.492188 C 0 7.570312 1.238281 8.753906 1.988281 8.753906 C 2.296875 8.753906 2.476562 7.9375 2.476562 7.707031 C 2.476562 7.433594 1.734375 6.847656 1.734375 5.703125 C 1.734375 3.324219 3.648438 1.640625 6.121094 1.640625 C 8.25 1.640625 9.824219 2.78125 9.824219 4.886719 C 9.824219 6.457031 9.160156 9.402344 7.003906 9.402344 C 6.226562 9.402344 5.558594 8.871094 5.558594 8.105469 C 5.558594 6.988281 6.382812 5.90625 6.382812 4.753906 C 6.382812 2.792969 3.449219 3.148438 3.449219 5.515625 C 3.449219 6.015625 3.515625 6.5625 3.75 7.015625 C 3.320312 8.773438 2.4375 11.390625 2.4375 13.199219 C 2.4375 13.761719 2.523438 14.308594 2.578125 14.867188 C 2.683594 14.980469 2.628906 14.96875 2.792969 14.914062 C 4.367188 12.875 4.3125 12.472656 5.023438 9.804688 C 5.410156 10.492188 6.402344 10.867188 7.191406 10.867188 C 10.507812 10.867188 12 7.804688 12 5.046875 C 12 2.109375 9.320312 0.191406 6.375 0.191406 Z M 6.375 0.191406 "/>
</g>
</svg>
