<svg 
 xmlns="http://www.w3.org/2000/svg"
 xmlns:xlink="http://www.w3.org/1999/xlink"
 width="90px" height="90px">
<path fill-rule="evenodd"  fill="rgb(254, 62, 87)"
 d="M45.000,-0.000 C69.853,-0.000 90.000,20.147 90.000,45.000 C90.000,69.853 69.853,90.000 45.000,90.000 C20.147,90.000 -0.000,69.853 -0.000,45.000 C-0.000,20.147 20.147,-0.000 45.000,-0.000 Z"/>
<path fill-rule="evenodd"  fill="rgb(255, 255, 255)"
 d="M51.816,43.142 L39.992,35.536 C39.446,35.185 38.896,34.999 38.438,34.999 C37.554,34.999 37.007,35.666 37.007,36.782 L37.007,53.219 C37.007,54.334 37.554,54.999 38.436,54.999 C38.894,54.999 39.435,54.813 39.982,54.460 L51.812,46.855 C52.572,46.366 52.994,45.706 52.994,44.998 C52.994,44.291 52.577,43.631 51.816,43.142 "/>
</svg>